IKResults
version=1
nRows=10
nColumns=40
inDegrees=yes

Units are S.I. units (second, meters, Newtons, ...)
Angles are in degrees.

endheader
time	pelvis_tilt	pelvis_list	pelvis_rotation	pelvis_tx	pelvis_ty	pelvis_tz	hip_flexion_r	hip_adduction_r	hip_rotation_r	knee_angle_r	knee_angle_r_beta	ankle_angle_r	subtalar_angle_r	mtp_angle_r	hip_flexion_l	hip_adduction_l	hip_rotation_l	knee_angle_l	knee_angle_l_beta	ankle_angle_l	subtalar_angle_l	mtp_angle_l	lumbar_extension	lumbar_bending	lumbar_rotation	arm_flex_r	arm_add_r	arm_rot_r	elbow_flex_r	pro_sup_r	wrist_flex_r	wrist_dev_r	arm_flex_l	arm_add_l	arm_rot_l	elbow_flex_l	pro_sup_l	wrist_flex_l	wrist_dev_l
      0.54000000	     15.96681409	      0.51890262	     -2.55071375	     -0.78931917	      0.93998847	      1.01339673	    -25.34940872	      0.88058807	     -6.34639856	    -13.07881409	     -0.22826837	     12.74603728	     -2.59922476	     -1.38276933	      4.74280917	      1.38068450	     19.84027591	    -21.05306200	     -0.36744525	      6.47091427	      8.41733279	     -2.15548653	    -21.70309965	     -3.39955219	      6.93901050	      3.14845992	    -15.09925810	     -1.41868455	     49.50614864	     89.95437384	      0.00000000	      0.00000000	    -10.67583910	      8.32955366	      7.36008839	     15.38904340	     89.95437384	      0.00000000	      0.00000000
      0.55000000	     15.79990150	      0.65144792	     -2.65206284	     -0.77996761	      0.93845905	      1.01338147	    -25.62876985	      0.66502471	     -6.36172308	    -13.45089646	     -0.23476243	     13.07961900	     -2.72172869	     -1.42333680	      4.88096399	      1.08714606	     21.40389252	    -18.19023247	     -0.31747945	      6.22059530	      6.45977586	     -2.32604688	    -21.52542144	     -3.55705552	      6.96340209	      3.58375977	    -15.20153400	     -1.22447657	     49.78952567	     89.95437384	      0.00000000	      0.00000000	    -11.16695090	      8.26312631	      7.28169213	     15.18325904	     89.95437384	      0.00000000	      0.00000000
      0.56000000	     16.12586826	      0.86590832	     -3.16836737	     -0.76963842	      0.93738422	      1.01344614	    -26.49444473	     -0.00179056	     -6.83502880	    -13.78723998	     -0.24063273	     13.45637151	     -1.26356081	     -1.74430112	      4.60504504	      1.10088805	     25.73539045	    -16.19544448	     -0.28266383	      5.50813681	      1.22802552	     -3.32430561	    -21.74565220	     -3.88305022	      7.34690666	      3.84597142	    -15.46432781	     -0.88135993	     50.27057616	     89.95437384	      0.00000000	      0.00000000	    -11.67208440	      8.06913935	      7.82451799	     15.08340149	     89.95437384	      0.00000000	      0.00000000
      0.57000000	     16.09473837	      1.15313436	     -3.32094253	     -0.76012995	      0.93596831	      1.01288274	    -26.90884264	     -0.48833220	     -6.89127156	    -14.18495270	     -0.24757413	     13.73309243	     -1.31184372	     -1.85867192	      4.70335654	      0.50021301	     27.38811383	    -14.01400789	     -0.24459058	      5.28360937	     -0.72745329	     -3.60918374	    -21.71024677	     -4.16059529	      7.34086255	      4.22334382	    -15.61712253	     -0.59875275	     50.53436097	     89.95437384	      0.00000000	      0.00000000	    -11.98307182	      7.91466522	      7.98802487	     14.74328302	     89.95437384	      0.00000000	      0.00000000
      0.58000000	     16.06226551	      1.43585460	     -3.57108766	     -0.75022154	      0.93443442	      1.01240951	    -27.17499495	     -1.19089410	     -7.64863419	    -14.90055935	     -0.26006382	     14.06533937	      0.51572104	     -2.71238000	      5.04867029	      0.28644977	     30.58449397	    -12.85153303	     -0.22430157	      4.43922433	     -5.03972781	     -4.60144654	    -21.63001432	     -4.46781122	      7.40966083	      4.50694127	    -15.77502164	     -0.25274730	     50.83949590	     89.95437384	      0.00000000	      0.00000000	    -12.33339445	      7.72177349	      8.41706484	     14.52144184	     89.95437384	      0.00000000	      0.00000000
      0.59000000	     15.87472023	      1.60688807	     -3.59141232	     -0.74081199	      0.93294365	      1.01177156	    -27.40163693	     -1.48971215	     -7.49086139	    -15.32920602	     -0.26754512	     14.18061911	      0.50805555	     -2.82726701	      5.38467188	     -0.23296751	     31.08071677	    -11.33177149	     -0.19777672	      4.33265252	     -6.27205436	     -4.75426237	    -21.46385899	     -4.59647085	      7.38600687	      4.85841899	    -15.87202446	      0.04420555	     50.87468604	     89.95437384	      0.00000000	      0.00000000	    -12.42361606	      7.59471262	      8.41855448	     14.07482761	     89.95437384	      0.00000000	      0.00000000
      0.60000000	     15.99187184	      2.06882499	     -3.95822443	     -0.73081538	      0.93195211	      1.01116114	    -27.83296052	     -2.36669292	     -7.57842857	    -16.01036147	     -0.27943352	     14.24508037	      0.87182578	     -3.14699521	      5.07819595	     -1.14715806	     31.75287847	     -9.54586440	     -0.16660676	      3.17669230	     -7.97449080	     -4.97188527	    -21.53557571	     -5.11076826	      7.45681193	      5.15737370	    -15.92679924	      0.34103083	     50.96911995	     89.95437384	      0.00000000	      0.00000000	    -12.66584338	      7.42616540	      8.43928764	     13.82287021	     89.95437384	      0.00000000	      0.00000000
      0.61000000	     15.91372585	      2.26218886	     -4.12297044	     -0.72088446	      0.93081920	      1.01068842	    -28.07211001	     -2.81862699	     -7.52866451	    -16.65214580	     -0.29063477	     14.15607224	      1.30252023	     -3.41132783	      5.10784348	     -1.65616416	     31.65815364	     -8.50143327	     -0.14837800	      2.71717395	     -9.09617808	     -5.13437966	    -21.41888203	     -5.32045122	      7.46391296	      5.40571169	    -15.94536344	      0.68099740	     50.95037532	     89.95437384	      0.00000000	      0.00000000	    -12.72343155	      7.29169266	      8.53007085	     13.41846799	     89.95437384	      0.00000000	      0.00000000
      0.62000000	     15.78998780	      2.30741269	     -4.14307167	     -0.71077113	      0.92971354	      1.01022983	    -28.31340172	     -2.99835918	     -7.26171544	    -17.22890992	     -0.30070120	     14.00831438	      1.42748621	     -3.49038380	      5.26074969	     -1.88840658	     31.30229372	     -8.18219980	     -0.14280633	      2.79154388	     -9.55300133	     -5.18592241	    -21.26483007	     -5.35793359	      7.40325608	      5.64622753	    -15.83540480	      0.83958246	     50.74955777	     89.95437384	      0.00000000	      0.00000000	    -12.81254513	      7.19541766	      8.40062816	     13.08117749	     89.95437384	      0.00000000	      0.00000000
      0.63000000	     15.70112893	      2.36054771	     -4.31299740	     -0.70031324	      0.92872849	      1.00996446	    -28.49039981	     -3.25608684	     -6.88276627	    -17.98970412	     -0.31397957	     13.59487580	      1.56797121	     -3.53047180	      5.26590568	     -2.09470301	     30.71031261	     -8.15502220	     -0.14233199	      2.71460667	     -9.88368206	     -5.22673690	    -21.08255722	     -5.45507504	      7.49994046	      5.75778819	    -15.77921160	      1.13382059	     50.56165961	     89.95437384	      0.00000000	      0.00000000	    -12.91659926	      7.10805623	      8.17968352	     12.85224338	     89.95437384	      0.00000000	      0.00000000
